<?xml version="1.0" encoding="UTF-8" standalone="no"?>
<!-- Created with Inkscape (http://www.inkscape.org/) -->

<svg
   xmlns:dc="http://purl.org/dc/elements/1.1/"
   xmlns:cc="http://creativecommons.org/ns#"
   xmlns:rdf="http://www.w3.org/1999/02/22-rdf-syntax-ns#"
   xmlns:svg="http://www.w3.org/2000/svg"
   xmlns="http://www.w3.org/2000/svg"
   xmlns:sodipodi="http://sodipodi.sourceforge.net/DTD/sodipodi-0.dtd"
   xmlns:inkscape="http://www.inkscape.org/namespaces/inkscape"
   width="40"
   height="30"
   viewBox="0 0 10.583333 7.9375002"
   version="1.1"
   id="svg8"
   sodipodi:docname="brazilcol.svg"
   inkscape:version="0.92.4 (5da689c313, 2019-01-14)">
  <defs
     id="defs2" />
  <sodipodi:namedview
     id="base"
     pagecolor="#ffffff"
     bordercolor="#666666"
     borderopacity="1.0"
     inkscape:pageopacity="0.0"
     inkscape:pageshadow="2"
     inkscape:zoom="7.9195959"
     inkscape:cx="77.4366"
     inkscape:cy="2.205411"
     inkscape:document-units="mm"
     inkscape:current-layer="layer1"
     showgrid="false"
     inkscape:window-width="1920"
     inkscape:window-height="1001"
     inkscape:window-x="-9"
     inkscape:window-y="-9"
     inkscape:window-maximized="1"
     units="px" />
  <metadata
     id="metadata5">
    <rdf:RDF>
      <cc:Work
         rdf:about="">
        <dc:format>image/svg+xml</dc:format>
        <dc:type
           rdf:resource="http://purl.org/dc/dcmitype/StillImage" />
        <dc:title></dc:title>
      </cc:Work>
    </rdf:RDF>
  </metadata>
  <g
     inkscape:label="Camada 1"
     inkscape:groupmode="layer"
     id="layer1"
     transform="translate(0,-289.06248)">
    <g
       id="g3739"
       transform="matrix(0.13119945,0,0,0.14879184,-1.2412757,285.5229)">
      <path
         id="path3715"
         d="m 88.9,76.9 c 0.6,0 1,-0.4 1,-1 V 25.2 c 0,-0.6 -0.4,-1 -1,-1 H 11 c -0.6,0 -1,0.4 -1,1 V 76 c 0,0.6 0.4,1 1,1 H 88.9 Z M 12,26.2 H 87.9 V 75 H 12 Z"
         inkscape:connector-curvature="0" />
      <path
         id="path3717"
         d="M 77.9,49.7 50.5,32.3 c -0.3,-0.2 -0.7,-0.2 -1.1,0 L 22,49.7 c -0.3,0.2 -0.5,0.5 -0.5,0.8 0,0.3 0.2,0.7 0.5,0.8 l 27.4,17.4 c 0.2,0.1 0.3,0.2 0.5,0.2 0.2,0 0.4,-0.1 0.5,-0.2 L 77.8,51.3 c 0.3,-0.2 0.5,-0.5 0.5,-0.8 0,-0.3 -0.1,-0.6 -0.4,-0.8 z M 50,66.7 24.4,50.5 50,34.3 75.5,50.5 Z"
         inkscape:connector-curvature="0" />
      <path
         id="path3719"
         d="m 39.6,50.5 c 0,5.7 4.7,10.4 10.4,10.4 5.7,0 10.4,-4.7 10.4,-10.4 0,-5.7 -4.7,-10.4 -10.4,-10.4 -5.8,0 -10.4,4.7 -10.4,10.4 z M 50,58.9 c -4.6,0 -8.4,-3.8 -8.4,-8.4 0,-1.1 0.2,-2.1 0.6,-3 1.5,0 10.4,0 15.2,7 -1.5,2.7 -4.3,4.4 -7.4,4.4 z m 8.4,-8.4 c 0,0.6 -0.1,1.2 -0.2,1.8 -4.7,-5.8 -11.9,-6.7 -15,-6.8 1.5,-2.1 4,-3.4 6.8,-3.4 4.6,0 8.4,3.8 8.4,8.4 z"
         inkscape:connector-curvature="0" />
    </g>
    <path
       style="fill:#008000;stroke-width:0.02494983"
       d="m 0.33773817,293.05983 v -3.61352 H 5.3045753 10.27141 v 3.61352 3.61352 H 5.3045753 0.33773817 Z m 5.05503033,2.68362 c 0.2569283,-0.17765 3.4984346,-2.51616 3.5607913,-2.56885 0.05534,-0.0467 0.076142,-0.0854 0.076142,-0.14134 0,-0.0558 -0.020936,-0.0949 -0.076142,-0.14201 -0.1984657,-0.16942 -3.5742362,-2.57958 -3.6255565,-2.58849 -0.04493,-0.008 -0.3586517,0.2059 -1.3471372,0.91766 -0.7087106,0.5103 -1.5363218,1.1062 -1.8391354,1.32423 -0.5136029,0.36976 -0.5510535,0.40202 -0.5577831,0.48041 -0.00571,0.0667 0.00644,0.0953 0.058572,0.13865 0.097884,0.0813 3.6460129,2.63284 3.6609493,2.63274 0.00705,-6e-5 0.047239,-0.0239 0.0893,-0.053 z"
       id="path3745"
       inkscape:connector-curvature="0" />
    <path
       style="fill:#008000;stroke-width:0.02494983"
       d="m 0.33773817,293.05983 v -3.61352 H 5.3045753 10.27141 v 3.61352 3.61352 H 5.3045753 0.33773817 Z m 5.94373933,2.06231 c 1.8265939,-1.31243 2.6694162,-1.92787 2.7103293,-1.97915 0.069455,-0.0871 0.040619,-0.1886 -0.083721,-0.29482 -0.1838578,-0.15708 -3.1196054,-2.26197 -3.4477759,-2.47201 -0.085437,-0.0547 -0.1471679,-0.0779 -0.1779576,-0.0668 -0.025931,0.009 -0.1923146,0.11613 -0.3697448,0.2373 -0.4233555,0.28915 -3.0783814,2.20031 -3.2218742,2.31919 -0.084937,0.0704 -0.1111994,0.10895 -0.1109266,0.16299 6.439e-4,0.12184 -0.1891091,-0.0248 2.0496336,1.58402 0.734482,0.52781 1.4039507,1.00936 1.4877085,1.07011 0.083757,0.0607 0.1688036,0.11114 0.1889926,0.11199 0.020191,10e-4 0.4590917,-0.30194 0.9753361,-0.67286 z"
       id="path3747"
       inkscape:connector-curvature="0" />
    <path
       style="fill:#ffd42a;stroke-width:0.02494983"
       d="m 3.6528671,294.23944 c -0.9019959,-0.6494 -1.6423585,-1.18944 -1.64525,-1.2001 -0.00377,-0.0139 3.0361465,-2.21353 3.28454,-2.37662 0.017666,-0.0116 0.6678155,0.44076 1.6548959,1.15145 0.8941859,0.64382 1.6385806,1.18449 1.6542071,1.20148 0.021872,0.0238 -0.3493755,0.30316 -1.6122256,1.21326 -0.9023521,0.6503 -1.6531352,1.18436 -1.668407,1.1868 -0.015272,0.002 -0.7657639,-0.52688 -1.6677604,-1.17627 z m 1.9445637,0.32148 c 0.6229823,-0.14834 1.0894237,-0.79497 1.0894237,-1.51027 0,-0.27463 -0.034643,-0.44332 -0.1447364,-0.70481 -0.2207878,-0.5244 -0.6999221,-0.86089 -1.2258293,-0.86089 -0.8953131,0 -1.5455925,0.9497 -1.3237752,1.93328 0.097705,0.43325 0.3650876,0.81332 0.7068505,1.00477 0.3025,0.16945 0.5840565,0.21269 0.8980667,0.13792 z"
       id="path3749"
       inkscape:connector-curvature="0" />
    <path
       style="fill:#0000ff;stroke-width:0.02494983"
       d="m 5.132733,294.25578 c -0.2952,-0.0603 -0.6089704,-0.31483 -0.7621652,-0.61847 -0.1364753,-0.27053 -0.1781885,-0.68054 -0.09592,-0.94281 0.026281,-0.0838 0.031061,-0.0863 0.1612372,-0.0863 0.3504877,0 0.8840104,0.16472 1.2121034,0.37422 0.19388,0.12381 0.6171542,0.56641 0.6171542,0.64534 0,0.0721 -0.1954807,0.31841 -0.3411515,0.42968 -0.229936,0.17567 -0.5316855,0.25131 -0.7912583,0.19839 z"
       id="path3753"
       inkscape:connector-curvature="0" />
    <path
       style="fill:#0000ff;stroke-width:0.02494983"
       d="m 6.2101348,293.06834 c -0.3939579,-0.42331 -0.9745666,-0.70928 -1.5570935,-0.76692 -0.1055408,-0.0104 -0.191891,-0.0279 -0.191891,-0.0388 0,-0.0345 0.1982163,-0.22848 0.3060477,-0.2994 0.1777343,-0.11687 0.3524895,-0.15938 0.6076442,-0.14776 0.2061895,0.009 0.2446142,0.0198 0.4042829,0.10926 0.3000296,0.16818 0.5104466,0.45454 0.5906738,0.80384 0.037345,0.16258 0.048935,0.47838 0.01834,0.49979 -0.00966,0.006 -0.089768,-0.0654 -0.1780076,-0.16008 z"
       id="path3755"
       inkscape:connector-curvature="0" />
  </g>
  <style
     id="style3713"
     type="text/css">
	.st0{fill:none;stroke:#000000;stroke-width:2;stroke-linecap:round;stroke-linejoin:round;stroke-miterlimit:10;}
	.st1{stroke:#000000;stroke-linecap:round;stroke-linejoin:round;stroke-miterlimit:10;}
</style>
</svg>
