<?xml version="1.0" encoding="UTF-8" standalone="no"?>
<svg
   xmlns:dc="http://purl.org/dc/elements/1.1/"
   xmlns:cc="http://creativecommons.org/ns#"
   xmlns:rdf="http://www.w3.org/1999/02/22-rdf-syntax-ns#"
   xmlns:svg="http://www.w3.org/2000/svg"
   xmlns="http://www.w3.org/2000/svg"
   xmlns:sodipodi="http://sodipodi.sourceforge.net/DTD/sodipodi-0.dtd"
   xmlns:inkscape="http://www.inkscape.org/namespaces/inkscape"
   id="svg8"
   version="1.1"
   viewBox="0 0 10.583333 7.9375002"
   height="30"
   width="40"
   sodipodi:docname="brazil.svg"
   inkscape:version="0.92.4 (5da689c313, 2019-01-14)">
  <sodipodi:namedview
     pagecolor="#ffffff"
     bordercolor="#666666"
     borderopacity="1"
     objecttolerance="10"
     gridtolerance="10"
     guidetolerance="10"
     inkscape:pageopacity="0"
     inkscape:pageshadow="2"
     inkscape:window-width="1920"
     inkscape:window-height="1001"
     id="namedview3799"
     showgrid="false"
     units="px"
     inkscape:zoom="6.7277216"
     inkscape:cx="59.69587"
     inkscape:cy="18.267467"
     inkscape:window-x="-9"
     inkscape:window-y="-9"
     inkscape:window-maximized="1"
     inkscape:current-layer="svg8" />
  <defs
     id="defs2" />
  <metadata
     id="metadata5">
    <rdf:RDF>
      <cc:Work
         rdf:about="">
        <dc:format>image/svg+xml</dc:format>
        <dc:type
           rdf:resource="http://purl.org/dc/dcmitype/StillImage" />
        <dc:title></dc:title>
      </cc:Work>
    </rdf:RDF>
  </metadata>
  <g
     id="layer1"
     transform="matrix(0.49399581,0,0,0.55520986,-35.328009,-84.654988)">
    <g
       transform="matrix(0.26458333,0,0,0.26458333,68.986133,146.24862)"
       id="g3739">
      <path
         d="m 88.9,76.9 c 0.6,0 1,-0.4 1,-1 V 25.2 c 0,-0.6 -0.4,-1 -1,-1 H 11 c -0.6,0 -1,0.4 -1,1 V 76 c 0,0.6 0.4,1 1,1 H 88.9 Z M 12,26.2 H 87.9 V 75 H 12 Z"
         id="path3715"
         inkscape:connector-curvature="0" />
      <path
         d="M 77.9,49.7 50.5,32.3 c -0.3,-0.2 -0.7,-0.2 -1.1,0 L 22,49.7 c -0.3,0.2 -0.5,0.5 -0.5,0.8 0,0.3 0.2,0.7 0.5,0.8 l 27.4,17.4 c 0.2,0.1 0.3,0.2 0.5,0.2 0.2,0 0.4,-0.1 0.5,-0.2 L 77.8,51.3 c 0.3,-0.2 0.5,-0.5 0.5,-0.8 0,-0.3 -0.1,-0.6 -0.4,-0.8 z M 50,66.7 24.4,50.5 50,34.3 75.5,50.5 Z"
         id="path3717"
         inkscape:connector-curvature="0" />
      <path
         d="m 39.6,50.5 c 0,5.7 4.7,10.4 10.4,10.4 5.7,0 10.4,-4.7 10.4,-10.4 0,-5.7 -4.7,-10.4 -10.4,-10.4 -5.8,0 -10.4,4.7 -10.4,10.4 z M 50,58.9 c -4.6,0 -8.4,-3.8 -8.4,-8.4 0,-1.1 0.2,-2.1 0.6,-3 1.5,0 10.4,0 15.2,7 -1.5,2.7 -4.3,4.4 -7.4,4.4 z m 8.4,-8.4 c 0,0.6 -0.1,1.2 -0.2,1.8 -4.7,-5.8 -11.9,-6.7 -15,-6.8 1.5,-2.1 4,-3.4 6.8,-3.4 4.6,0 8.4,3.8 8.4,8.4 z"
         id="path3719"
         inkscape:connector-curvature="0" />
    </g>
  </g>
  <style
     type="text/css"
     id="style3713">
	.st0{fill:none;stroke:#000000;stroke-width:2;stroke-linecap:round;stroke-linejoin:round;stroke-miterlimit:10;}
	.st1{stroke:#000000;stroke-linecap:round;stroke-linejoin:round;stroke-miterlimit:10;}
</style>
</svg>
