<?xml version="1.0" encoding="UTF-8" standalone="no"?>
<svg
   xmlns:dc="http://purl.org/dc/elements/1.1/"
   xmlns:cc="http://creativecommons.org/ns#"
   xmlns:rdf="http://www.w3.org/1999/02/22-rdf-syntax-ns#"
   xmlns:svg="http://www.w3.org/2000/svg"
   xmlns="http://www.w3.org/2000/svg"
   xmlns:sodipodi="http://sodipodi.sourceforge.net/DTD/sodipodi-0.dtd"
   xmlns:inkscape="http://www.inkscape.org/namespaces/inkscape"
   id="svg8"
   version="1.1"
   viewBox="0 0 10.583333 7.9375002"
   height="30"
   width="40"
   sodipodi:docname="englishCol.svg"
   inkscape:version="0.92.4 (5da689c313, 2019-01-14)">
  <sodipodi:namedview
     pagecolor="#ffffff"
     bordercolor="#666666"
     borderopacity="1"
     objecttolerance="10"
     gridtolerance="10"
     guidetolerance="10"
     inkscape:pageopacity="0"
     inkscape:pageshadow="2"
     inkscape:window-width="1920"
     inkscape:window-height="1001"
     id="namedview3799"
     showgrid="false"
     units="px"
     inkscape:zoom="6.7277216"
     inkscape:cx="95.698551"
     inkscape:cy="19.925706"
     inkscape:window-x="-9"
     inkscape:window-y="-9"
     inkscape:window-maximized="1"
     inkscape:current-layer="svg8" />
  <defs
     id="defs2" />
  <metadata
     id="metadata5">
    <rdf:RDF>
      <cc:Work
         rdf:about="">
        <dc:format>image/svg+xml</dc:format>
        <dc:type
           rdf:resource="http://purl.org/dc/dcmitype/StillImage" />
        <dc:title></dc:title>
      </cc:Work>
    </rdf:RDF>
  </metadata>
  <g
     id="layer1"
     transform="matrix(0.49399581,0,0,0.55520986,-35.328009,-84.654988)">
    <g
       transform="matrix(0.26458333,0,0,0.26458333,68.986133,146.24862)"
       id="g3739">
      <path
         d="m 88.9,76.9 c 0.6,0 1,-0.4 1,-1 V 25.2 c 0,-0.6 -0.4,-1 -1,-1 H 11 c -0.6,0 -1,0.4 -1,1 V 76 c 0,0.6 0.4,1 1,1 H 88.9 Z M 12,26.2 H 87.9 V 75 H 12 Z"
         id="path3715"
         inkscape:connector-curvature="0"
         sodipodi:nodetypes="csssssssccccccc" />
    </g>
  </g>
  <style
     type="text/css"
     id="style3713">
	.st0{fill:none;stroke:#000000;stroke-width:2;stroke-linecap:round;stroke-linejoin:round;stroke-miterlimit:10;}
	.st1{stroke:#000000;stroke-linecap:round;stroke-linejoin:round;stroke-miterlimit:10;}
</style>
  <path
     style="fill:none;stroke:#000000;stroke-width:0.26458332px;stroke-linecap:butt;stroke-linejoin:miter;stroke-opacity:1"
     d="M 0.31928831,7.5611333 10.23965,0.39244881"
     id="path51"
     inkscape:connector-curvature="0" />
  <path
     style="fill:none;stroke:#000000;stroke-width:0.26458332px;stroke-linecap:butt;stroke-linejoin:miter;stroke-opacity:1"
     d="M 2.8315679,0.26867048 2.870895,3.178893"
     id="path53"
     inkscape:connector-curvature="0" />
  <path
     style="fill:none;stroke:#000000;stroke-width:0.26458332px;stroke-linecap:butt;stroke-linejoin:miter;stroke-opacity:1"
     d="M 0.11798199,3.1395656 2.870895,3.178893"
     id="path55"
     inkscape:connector-curvature="0" />
  <path
     style="fill:none;stroke:#000000;stroke-width:0.26458332px;stroke-linecap:butt;stroke-linejoin:miter;stroke-opacity:1"
     d="M 2.9495498,1.2911811 9.045286,1.2518537"
     id="path57"
     inkscape:connector-curvature="0" />
  <path
     style="fill:none;stroke:#000000;stroke-width:0.26458332px;stroke-linecap:butt;stroke-linejoin:miter;stroke-opacity:1"
     d="M 2.870895,2.0777277 7.8654659,2.117055"
     id="path59"
     inkscape:connector-curvature="0"
     sodipodi:nodetypes="cc" />
  <path
     style="fill:none;stroke:#000000;stroke-width:0.26458332px;stroke-linecap:butt;stroke-linejoin:miter;stroke-opacity:1"
     d="M 2.870895,3.178893 6.3317001,3.1395655"
     id="path61"
     inkscape:connector-curvature="0"
     sodipodi:nodetypes="cc" />
  <path
     style="fill:none;stroke:#000000;stroke-width:0.26458332px;stroke-linecap:butt;stroke-linejoin:miter;stroke-opacity:1"
     d="M 0.27529131,3.9654395 5.466499,3.8867849"
     id="path63"
     inkscape:connector-curvature="0" />
  <path
     style="fill:none;stroke:#000000;stroke-width:0.26458332px;stroke-linecap:butt;stroke-linejoin:miter;stroke-opacity:1"
     d="m 0.11798199,4.9092956 3.85407841,-1e-7"
     id="path65"
     inkscape:connector-curvature="0"
     sodipodi:nodetypes="cc" />
  <path
     style="fill:none;stroke:#000000;stroke-width:0.26458332px;stroke-linecap:butt;stroke-linejoin:miter;stroke-opacity:1"
     d="M 0.03932733,5.695842 2.7135857,5.7351694"
     id="path67"
     inkscape:connector-curvature="0"
     sodipodi:nodetypes="cc" />
  <path
     style="fill:#ff0000;stroke:#000000;stroke-width:0.26458332px;stroke-linecap:butt;stroke-linejoin:miter;stroke-opacity:1"
     d="M 0.23596398,6.6003708 H 1.6124205"
     id="path69"
     inkscape:connector-curvature="0"
     sodipodi:nodetypes="cc" />
  <path
     style="fill:none;stroke:#000000;stroke-width:0.26458332px;stroke-linecap:butt;stroke-linejoin:miter;stroke-opacity:1"
     d="M 5.466499,3.8867849 5.545154,7.6622086"
     id="path129"
     inkscape:connector-curvature="0" />
  <path
     style="fill:none;stroke:#000000;stroke-width:0.26458332px;stroke-linecap:butt;stroke-linejoin:miter;stroke-opacity:1"
     d="m 6.5283368,7.7015359 2e-7,-3.4214776 3.775424,-0.039327"
     id="path131"
     inkscape:connector-curvature="0"
     sodipodi:nodetypes="ccc" />
  <path
     style="fill:none;stroke:#000000;stroke-width:0.26458332px;stroke-linecap:butt;stroke-linejoin:miter;stroke-opacity:1"
     d="m 6.3317,3.1395654 3.97206,-0.078655"
     id="path133"
     inkscape:connector-curvature="0" />
  <path
     style="fill:none;stroke:#000000;stroke-width:0.26458332px;stroke-linecap:butt;stroke-linejoin:miter;stroke-opacity:1"
     d="M 6.5676642,4.7519862 9.3599046,7.701536"
     id="path135"
     inkscape:connector-curvature="0" />
  <path
     style="fill:none;stroke:#000000;stroke-width:0.26458332px;stroke-linecap:butt;stroke-linejoin:miter;stroke-opacity:1"
     d="M 7.1575741,4.2014036 10.30376,6.9543167"
     id="path137"
     inkscape:connector-curvature="0" />
  <path
     style="fill:none;stroke:#000000;stroke-width:0.26458332px;stroke-linecap:butt;stroke-linejoin:miter;stroke-opacity:1"
     d="M 5.584481,4.4373675 1.4157839,7.5835538"
     id="path139"
     inkscape:connector-curvature="0" />
  <path
     style="fill:#ff0000;stroke:#000000;stroke-width:0.26458332px;stroke-linecap:butt;stroke-linejoin:miter;stroke-opacity:1"
     d="m 7.393538,3.2182202 2.94955,-2.0450211"
     id="path143"
     inkscape:connector-curvature="0" />
  <path
     style="fill:#ff0000;stroke-width:0.14863873"
     d="M 11.239644,2.908641 V 1.5656438 h 13.179301 c 7.248614,0 13.15143,0.023477 13.117368,0.052171 -0.03406,0.028694 -0.831139,0.6139593 -1.771279,1.300589 L 34.055689,4.1668216 22.647666,4.2092299 11.239644,4.251638 Z"
     id="path145"
     inkscape:connector-curvature="0"
     transform="scale(0.26458333)" />
  <path
     style="fill:#ff0000;stroke-width:0.14863873"
     d="M 11.388282,9.8809125 V 8.386025 l 8.21229,0.102795 c 4.51676,0.056537 8.22272,0.1105279 8.235466,0.1199792 0.01275,0.00945 -0.769292,0.5857275 -1.737865,1.2806135 -1.140882,0.8185063 -1.960373,1.2996703 -2.327076,1.3663423 -0.311319,0.0566 -3.224811,0.106768 -6.474425,0.111479 l -5.90839,0.0086 z"
     id="path147"
     inkscape:connector-curvature="0"
     transform="scale(0.26458333)" />
  <path
     style="fill:#ff0000;stroke-width:0.14863873"
     d="m 1.2808488,16.726794 v -1.189109 l 2.0437825,-0.01272 c 1.1240804,-0.007 4.9868295,-0.06188 8.5838867,-0.121972 3.597057,-0.06009 6.559117,-0.09667 6.582355,-0.08128 0.02324,0.01538 -0.756524,0.605371 -1.732804,1.311082 l -1.775055,1.283111 H 8.1319315 1.2808488 Z"
     id="path149"
     inkscape:connector-curvature="0"
     transform="scale(0.26458333)" />
  <path
     style="fill:#ff0000;stroke-width:0.14863873"
     d="m 1.2808488,23.189532 v -1.117839 l 3.7531279,0.0979 c 2.0642204,0.05384 3.7724962,0.113602 3.7961684,0.132794 0.023672,0.01919 -0.5724048,0.478163 -1.3246156,1.019937 L 6.1378736,24.30737 H 3.7093611 1.2808488 Z"
     id="path151"
     inkscape:connector-curvature="0"
     transform="scale(0.26458333)" />
  <path
     style="fill:#0000ff;stroke-width:0.14863873"
     d="M 1.2808488,6.4707219 V 1.5656438 H 5.7400107 10.199173 V 6.4707219 11.3758 H 5.7400107 1.2808488 Z"
     id="path153"
     inkscape:connector-curvature="0"
     transform="scale(0.26458333)" />
  <path
     style="fill:#ff0000;stroke-width:0.14863873"
     d="m 21.431039,24.344529 c -0.05861,-2.268598 -0.105924,-4.860486 -0.105144,-5.759751 7.81e-4,-0.899264 -0.03253,-2.106388 -0.07403,-2.682498 l -0.07545,-1.047472 1.716522,-1.232379 1.716521,-1.232379 1.898983,0.03361 c 1.04444,0.01848 1.999313,-0.004 2.12194,-0.0499 0.122627,-0.04593 2.415639,-0.114217 5.095582,-0.151752 l 4.872624,-0.06824 -0.04187,1.654801 -0.04187,1.654802 -6.540104,0.02985 c -3.597058,0.01642 -6.824376,0.07068 -7.171819,0.120586 l -0.631715,0.09074 v 6.382358 6.382358 h -1.316805 -1.316806 z"
     id="path155"
     inkscape:connector-curvature="0"
     transform="scale(0.26458333)" />
  <path
     style="fill:#ff0000;stroke-width:0.14863873"
     d="M 30.41404,23.035585 C 26.372114,18.75776 25.276139,17.514914 25.239427,17.167527 l -0.04658,-0.440733 h 0.977409 0.977408 l 5.720752,5.006958 5.720752,5.006959 v 0.864271 0.864272 l -1.523547,-0.0032 -1.523547,-0.0032 z"
     id="path157"
     inkscape:connector-curvature="0"
     transform="scale(0.26458333)" />
  <path
     style="fill:#ff0000;stroke-width:0.14863873"
     d="M 2.5517099,28.33824 C 2.792898,28.114463 20.023687,15.686323 20.092752,15.686323 c 0.03587,0 0.06243,0.250828 0.05903,0.557395 l -0.0062,0.557396 -7.574388,5.70661 c -4.1659127,3.138636 -7.5743869,5.763968 -7.5743869,5.83407 0,0.0701 -0.5819207,0.12746 -1.293157,0.12746 -0.753837,0 -1.2342657,-0.05464 -1.1519502,-0.131014 z"
     id="path159"
     inkscape:connector-curvature="0"
     transform="scale(0.26458333)" />
  <path
     style="fill:#ff0000;stroke-width:0.14863873"
     d="m 28.721017,9.4121417 c 1.380795,-0.9982609 4.149278,-3.0018208 6.152185,-4.4523552 l 3.641649,-2.6373355 0.04528,0.8344319 c 0.02963,0.5459813 -0.02175,0.8974623 -0.148639,1.0167669 -0.106658,0.1002843 -2.426799,1.7283497 -5.15587,3.6179233 l -4.961946,3.4355879 h -1.041601 -1.0416 z"
     id="path161"
     inkscape:connector-curvature="0"
     transform="scale(0.26458333)" />
  <path
     style="fill:#0000ff;stroke-width:0.14863873"
     d="m 7.6197937,27.684819 c 0.5602698,-0.43144 3.6003273,-2.732168 6.7556843,-5.11273 l 5.737012,-4.328295 0.09706,2.460972 c 0.05338,1.353535 0.09706,3.654263 0.09706,5.11273 v 2.651758 H 13.453864 6.6011215 Z"
     id="path163"
     inkscape:connector-curvature="0"
     transform="scale(0.26458333)" />
  <path
     style="fill:#0000ff;stroke-width:0.14863873"
     d="M 25.211684,23.827672 V 19.18609 l 0.348423,0.368218 c 0.191633,0.202521 2.168984,2.291233 4.394115,4.641583 l 4.045692,4.273363 h -4.394115 -4.394115 z"
     id="path165"
     inkscape:connector-curvature="0"
     transform="scale(0.26458333)" />
  <path
     style="fill:#0000ff;stroke-width:0.14863873"
     d="m 33.733201,20.95126 -4.78165,-4.189552 4.751372,-0.109668 c 2.613254,-0.06032 4.782761,-0.07828 4.821126,-0.03991 0.03836,0.03836 0.05199,1.973013 0.03028,4.299219 l -0.03948,4.229466 z"
     id="path167"
     inkscape:connector-curvature="0"
     transform="scale(0.26458333)" />
  <path
     style="fill:#0000ff;stroke-width:0.14863873"
     d="m 30.420996,11.179099 c 0.120831,-0.133378 8.033994,-5.6002095 8.106227,-5.6002095 0.03407,0 0.06195,1.2374175 0.06195,2.7498166 v 2.7498169 l -3.307212,0.0013 c -1.818966,7.09e-4 -3.675092,0.04353 -4.124724,0.09514 -0.449632,0.05162 -0.78094,0.05348 -0.736238,0.0041 z"
     id="path171"
     inkscape:connector-curvature="0"
     transform="scale(0.26458333)" />
  <path
     style="fill:none;stroke:#000000;stroke-width:0.26458332px;stroke-linecap:butt;stroke-linejoin:miter;stroke-opacity:1"
     d="M 7.8458025,4.3095537 10.362752,6.5020523"
     id="path173"
     inkscape:connector-curvature="0" />
  <path
     style="fill:none;stroke:#000000;stroke-width:0.26458332px;stroke-linecap:butt;stroke-linejoin:miter;stroke-opacity:1"
     d="M 8.9174721,7.7211996 6.6069916,5.4205507"
     id="path175"
     inkscape:connector-curvature="0" />
  <path
     style="fill:none;stroke:#000000;stroke-width:0.26458332px;stroke-linecap:butt;stroke-linejoin:miter;stroke-opacity:1"
     d="M 5.52549,4.8994636 1.87788,7.6917041"
     id="path179"
     inkscape:connector-curvature="0" />
  <path
     style="fill:none;stroke:#000000;stroke-width:0.26458332px;stroke-linecap:butt;stroke-linejoin:miter;stroke-opacity:1"
     d="M 8.2685713,3.1002384 10.362752,1.6057997"
     id="path181"
     inkscape:connector-curvature="0"
     sodipodi:nodetypes="cc" />
  <path
     style="fill:#ffffff;stroke-width:0.03715968"
     d=""
     id="path183"
     inkscape:connector-curvature="0"
     transform="scale(0.26458333)" />
  <path
     style="fill:#ffffff;stroke-width:0.03715968"
     d="m 6.7121574,28.411819 c 0.137047,-0.126481 2.8592795,-2.191309 8.3596016,-6.340803 2.25838,-1.703743 4.312051,-3.2537 4.563715,-3.444349 0.438743,-0.332371 0.45709,-0.342197 0.445916,-0.23881 -0.01033,0.09559 -0.750336,0.673228 -6.522008,5.091001 L 7.0490279,28.462036 H 6.8533865 c -0.1664112,0 -0.1875119,-0.0075 -0.1412291,-0.05022 z"
     id="path185"
     inkscape:connector-curvature="0"
     transform="scale(0.26458333)" />
  <path
     style="fill:#ffffff;stroke-width:0.03715968"
     d="m 33.186606,27.939228 c -0.285855,-0.287545 -2.17101,-2.162449 -4.189233,-4.166454 -3.108036,-3.08614 -3.678028,-3.636564 -3.725258,-3.597366 -0.0491,0.04075 -0.05576,-0.01302 -0.05576,-0.450317 v -0.496595 l 0.255266,0.259797 c 0.140396,0.142889 2.049153,2.157728 4.241683,4.477422 2.19253,2.319693 4.045872,4.280331 4.118539,4.356972 l 0.132121,0.139349 h -0.128809 c -0.11624,0 -0.17952,-0.05101 -0.648546,-0.522808 z"
     id="path187"
     inkscape:connector-curvature="0"
     transform="scale(0.26458333)" />
  <path
     style="fill:#ffffff;stroke-width:0.03715968"
     d="m 33.771389,20.961473 c -2.580815,-2.261511 -4.69613,-4.12856 -4.7007,-4.148997 -0.0046,-0.02044 0.06914,-0.04218 0.163792,-0.04831 l 0.172103,-0.01115 4.510018,3.926482 c 2.480509,2.159565 4.532512,3.947648 4.560006,3.973518 0.03775,0.03552 0.0423,0.09274 0.01858,0.233661 l -0.03141,0.186625 z"
     id="path189"
     inkscape:connector-curvature="0"
     transform="scale(0.26458333)" />
  <path
     style="fill:#ffffff;stroke-width:0.03715968"
     d="m 32.276692,9.9035527 c 0,-0.023448 3.628372,-2.5341935 5.611112,-3.8827537 l 0.613135,-0.4170235 0.01176,0.1363147 c 0.0065,0.074973 0.0065,0.1402876 0,0.1451434 -0.09266,0.069589 -6.201076,4.0341209 -6.21564,4.0341209 -0.0112,0 -0.02036,-0.00711 -0.02036,-0.015802 z"
     id="path191"
     inkscape:connector-curvature="0"
     transform="scale(0.26458333)" />
  <path
     style="fill:#ffffff;stroke-width:0.03715968"
     d="m 30.623086,11.051788 c 0.580835,-0.424384 1.608787,-1.1244905 1.674416,-1.1403936 0.06522,-0.015805 2.220227,-1.3980803 4.504775,-2.8894801 0.353319,-0.2306539 0.650884,-0.4108851 0.661255,-0.4005139 0.01037,0.010371 -1.407371,1.0367448 -3.150537,2.2808301 l -3.169395,2.2619735 -0.353156,0.01167 -0.353156,0.01167 z"
     id="path193"
     inkscape:connector-curvature="0"
     transform="scale(0.26458333)" />
  <path
     style="fill:#ffffff;stroke-width:0.03715968"
     d=""
     id="path195"
     inkscape:connector-curvature="0"
     transform="scale(0.26458333)" />
</svg>
