<svg xmlns="http://www.w3.org/2000/svg" xmlns:xlink="http://www.w3.org/1999/xlink" version="1.1" x="0px" y="0px" viewBox="0 0 100 125" style="enable-background:new 0 0 100 100;" xml:space="preserve"><style type="text/css">
	.st0{fill:none;stroke:#000000;stroke-width:2;stroke-linecap:round;stroke-linejoin:round;stroke-miterlimit:10;}
	.st1{stroke:#000000;stroke-linecap:round;stroke-linejoin:round;stroke-miterlimit:10;}
</style><path d="M88.9,76.9c0.6,0,1-0.4,1-1V25.2c0-0.6-0.4-1-1-1H11c-0.6,0-1,0.4-1,1v50.8c0,0.6,0.4,1,1,1H88.9z M12,26.2h75.9v48.8H12  V26.2z"/><path d="M77.9,49.7L50.5,32.3c-0.3-0.2-0.7-0.2-1.1,0L22,49.7c-0.3,0.2-0.5,0.5-0.5,0.8s0.2,0.7,0.5,0.8l27.4,17.4  c0.2,0.1,0.3,0.2,0.5,0.2s0.4-0.1,0.5-0.2l27.4-17.4c0.3-0.2,0.5-0.5,0.5-0.8S78.2,49.9,77.9,49.7z M50,66.7L24.4,50.5L50,34.3  l25.5,16.2L50,66.7z"/><path d="M39.6,50.5c0,5.7,4.7,10.4,10.4,10.4c5.7,0,10.4-4.7,10.4-10.4S55.7,40.1,50,40.1C44.2,40.1,39.6,44.8,39.6,50.5z M50,58.9  c-4.6,0-8.4-3.8-8.4-8.4c0-1.1,0.2-2.1,0.6-3c1.5,0,10.4,0,15.2,7C55.9,57.2,53.1,58.9,50,58.9z M58.4,50.5c0,0.6-0.1,1.2-0.2,1.8  c-4.7-5.8-11.9-6.7-15-6.8c1.5-2.1,4-3.4,6.8-3.4C54.6,42.1,58.4,45.9,58.4,50.5z"/><text x="0" y="115" fill="#000000" font-size="5px" font-weight="bold" font-family="'Helvetica Neue', Helvetica, Arial-Unicode, Arial, Sans-serif">Created by Made by Made</text><text x="0" y="120" fill="#000000" font-size="5px" font-weight="bold" font-family="'Helvetica Neue', Helvetica, Arial-Unicode, Arial, Sans-serif">from the Noun Project</text></svg>